<?xml version="1.0" encoding="utf-8"?>
<!-- Generator: Adobe Illustrator 28.3.0, SVG Export Plug-In . SVG Version: 6.00 Build 0)  -->
<svg version="1.1" id="Layer_1" xmlns="http://www.w3.org/2000/svg" xmlns:xlink="http://www.w3.org/1999/xlink" x="0px" y="0px"
	 viewBox="0 0 500 186.78" style="enable-background:new 0 0 500 186.78;" xml:space="preserve">
<style type="text/css">
	.st0{fill:#A909B8;}
	.st1{font-family:'TenorSans';}
	.st2{font-size:18.9606px;}
	.st3{letter-spacing:6;}
</style>
<g>
	<g>
		<path class="st0" d="M481.7,48.19c-2.7-2.69-8.4-1.36-14.52,1.38c10.46-7.68,11.63-12.06,10.77-15.36
			c-1.26-4.89-6.04-2.37-6.04-2.37c4.74-6.54-4.11-12.71-10.21-23.74c-6.1-11.03-10.22-7.6-10.22-7.6
			c-17.13,18.37-10.33,52.13-8.63,59.31c-0.95-0.3-2.05-0.31-3.27,0.32c0.32-1.05,0.22-2.47-1.32-4.09
			c-1.71-1.79-3.25-1.81-4.34-1.43c-2.12-5.07-5.03-14.56-1.89-23.42c0.15,0,0.29-0.03,0.43-0.11c0.38-0.23,0.5-0.72,0.26-1.1
			c-0.23-0.38-0.72-0.51-1.1-0.28c-0.38,0.23-0.49,0.72-0.26,1.1c0.05,0.08,0.1,0.14,0.17,0.19c-2.38,6.71-1.33,13.71,0.01,18.47
			c0.52,1.86,1.13,3.51,1.69,4.9c-3.17-4.56-7.86-13.05-6.73-22.22c0.14-0.03,0.28-0.09,0.39-0.2c0.32-0.3,0.33-0.81,0.02-1.14
			c-0.31-0.32-0.82-0.34-1.14-0.04c-0.32,0.3-0.33,0.81-0.02,1.14c0.06,0.06,0.13,0.11,0.2,0.15c-0.88,7.07,1.66,13.67,3.99,18.03
			c1.05,1.96,2.15,3.64,3.09,4.96c-0.46,0.3-0.72,0.6-0.72,0.6s-0.31,0.25-0.63,0.69l-0.3,0.46c-0.59,1.06-0.91,2.78,1.02,4.8
			c1.54,1.62,2.96,1.8,4.02,1.53c-2.28,3.98,22.17,20.15,22.17,20.15s1.82-1.03-5.63-11.69c18.67,14.34,35.84,10.67,44.34,0.02
			C506.72,59.82,489.01,55.47,481.7,48.19z"/>
		<g>
			<path class="st0" d="M61.74,131.39h0.63L113.8,36h10.95v111.1h-14.44V57.11h-0.64l-50.15,91.9h-2.86L7.62,56.47H6.98v90.63H0V36
				h10.79L61.74,131.39z"/>
			<path class="st0" d="M177.74,66c7.73,0,13.71,1.09,17.95,3.26c4.24,2.17,7.34,5,9.3,8.49c1.96,3.49,3.1,7.51,3.41,12.06
				c0.32,4.55,0.47,9.21,0.47,13.97v43.33h-12.85v-7.78c-3.07,2.96-6.98,5.32-11.75,7.06c-4.76,1.75-9.52,2.62-14.28,2.62
				c-4.55,0-8.57-0.79-12.07-2.38c-3.49-1.59-6.4-3.65-8.73-6.19c-2.33-2.54-4.07-5.4-5.24-8.57c-1.17-3.17-1.75-6.4-1.75-9.68
				c0-3.38,0.64-6.77,1.91-10.16c1.27-3.38,3.17-6.43,5.71-9.13c2.54-2.7,5.66-4.89,9.36-6.59c3.7-1.69,7.94-2.54,12.7-2.54
				s9.28,0.93,13.57,2.78c4.28,1.85,7.8,4.47,10.55,7.86v-6.83c0-8.68-1.3-15.13-3.9-19.36c-2.6-4.23-7.36-6.35-14.26-6.35
				c-2.98,0-5.58,0.37-7.81,1.11c-2.23,0.74-4.23,1.77-5.98,3.1c-1.76,1.32-3.37,2.96-4.86,4.92c-1.49,1.96-2.97,4.15-4.46,6.59
				l-8.15-8.25c1.49-1.59,3.04-3.18,4.68-4.76c1.64-1.59,3.66-3.01,6.04-4.28c2.38-1.27,5.22-2.3,8.5-3.1
				C169.11,66.39,173.07,66,177.74,66z M196.02,115.68c-0.53-1.27-1.3-2.75-2.31-4.45c-1.01-1.69-2.31-3.33-3.9-4.92
				c-1.6-1.59-3.51-2.94-5.74-4.05c-2.23-1.11-4.89-1.67-7.97-1.67s-5.9,0.61-8.44,1.83c-2.55,1.22-4.7,2.81-6.45,4.76
				c-1.75,1.96-3.11,4.26-4.06,6.9c-0.96,2.65-1.44,5.4-1.44,8.25c0,3.39,0.61,6.32,1.83,8.81c1.22,2.49,2.79,4.6,4.7,6.35
				c1.91,1.75,4.04,3.04,6.37,3.89c2.34,0.85,4.57,1.27,6.7,1.27c2.02,0,4.06-0.37,6.14-1.11c2.07-0.74,4.03-1.77,5.9-3.1
				c1.86-1.32,3.53-2.88,5.02-4.68c1.49-1.8,2.71-3.76,3.67-5.87V115.68z"/>
			<path class="st0" d="M232.05,36.63c1.69-1.69,3.7-2.54,6.03-2.54c2.33,0,4.34,0.85,6.03,2.54c1.69,1.69,2.54,3.71,2.54,6.03
				c0,2.33-0.85,4.34-2.54,6.03c-1.69,1.69-3.7,2.54-6.03,2.54c-2.33,0-4.34-0.85-6.03-2.54c-1.7-1.69-2.54-3.7-2.54-6.03
				C229.5,40.34,230.35,38.33,232.05,36.63z M245.06,67.74v79.36h-13.49V67.74H245.06z"/>
			<path class="st0" d="M276.36,147.1h-13.49V36h13.49V147.1z"/>
			<path class="st0" d="M336.01,128.53l24.92-60.79h7.78l-38.41,94.44c-1.17,2.86-2.38,5.74-3.65,8.65
				c-1.27,2.91-2.75,5.55-4.44,7.94c-1.69,2.38-3.65,4.31-5.87,5.79c-2.22,1.48-4.81,2.22-7.78,2.22c-2.12,0-4.39-0.42-6.83-1.27
				c-2.43-0.85-4.65-2.17-6.67-3.97l6.98-13.17c0.95,2.12,2.3,3.73,4.05,4.84c1.74,1.11,3.57,1.67,5.48,1.67
				c2.01,0,3.78-0.74,5.31-2.22c1.53-1.48,2.78-3.44,3.73-5.87l8.41-20.63l-35.55-78.41h14.44l27.46,60.79H336.01z"/>
			<path class="st0" d="M437.08,147.1V94.88c0-1.06-0.11-2.75-0.32-5.08c-0.21-2.33-0.87-4.65-1.98-6.98s-2.88-4.37-5.32-6.11
				c-2.44-1.75-5.87-2.62-10.32-2.62c-2.75,0-5.43,0.48-8.02,1.43c-2.59,0.95-4.89,2.43-6.9,4.44c-2.01,2.01-3.6,4.5-4.76,7.46
				c-1.16,2.96-1.74,6.51-1.74,10.63v49.04h-13.49V67.74h13.49V77.9h0.63l2.54-2.54c3.7-3.7,7.46-6.22,11.27-7.54
				c3.81-1.32,7.25-1.93,10.32-1.83c6.98,0,12.38,1.19,16.19,3.57c3.81,2.38,6.58,5.19,8.33,8.41c1.74,3.23,2.78,6.51,3.1,9.84
				c0.31,3.33,0.47,5.95,0.47,7.86v51.43H437.08z"/>
		</g>
	</g>
	<text transform="matrix(1 0 0 1 0.3639 177.7458)" class="st0 st1 st2 st3">SALÓN DE BELLEZA</text>
</g>
</svg>
